<?xml version="1.0" encoding="UTF-8" standalone="no"?>
<svg width="1600px" height="1315px" viewBox="0 0 1600 1315" version="1.1" xmlns="http://www.w3.org/2000/svg" xmlns:xlink="http://www.w3.org/1999/xlink">
    <!-- Generator: Sketch 43.1 (39012) - http://www.bohemiancoding.com/sketch -->
    <title>YOOrEE</title>
    <desc>Created with Sketch.</desc>
    <defs>
        <circle id="path-1" cx="657.5" cy="657.5" r="657.5"></circle>
        <polygon id="path-3" points="0.2973 184.095 170.2973 184.095 170.2973 0.0957 0.2973 0.0957 0.2973 184.095"></polygon>
        <polygon id="path-5" points="0.7027 184.095 170.7027 184.095 170.7027 0.0957 0.7027 0.0957 0.7027 184.095"></polygon>
        <polygon id="path-7" points="0 1080.095 1920 1080.095 1920 0.095 0 0.095"></polygon>
    </defs>
    <g id="Page-1" stroke="none" stroke-width="1" fill="none" fill-rule="evenodd">
        <g id="YOOrEE" transform="translate(-210.000000, -393.000000)">
            <rect id="Rectangle-2" x="0" y="0" width="2100" height="2100"></rect>
            <g id="Page-1" transform="translate(393.000000, 393.000000)">
                <mask id="mask-2" fill="white">
                    <use xlink:href="#path-1"></use>
                </mask>
                <g id="Mask"></g>
                <rect id="Rectangle" fill="#FCD786" mask="url(#mask-2)" x="-276" y="-175" width="1857" height="1593"></rect>
                <g mask="url(#mask-2)">
                    <g transform="translate(-307.000000, 227.000000)">
                        <polygon id="Fill-1" fill="#FCD786" points="0 1081.005 1920 1081.005 1920 1.005 0 1.005"></polygon>
                        <g id="Group-40" stroke-width="1" fill="none" transform="translate(0.000000, 0.910000)">
                            <path d="M1201.2441,811.2607 C1201.2441,933.1227 1093.2351,1031.9117 960.0001,1031.9117 C826.7651,1031.9117 718.7561,933.1227 718.7561,811.2607 C718.7561,689.3997 826.7651,590.6107 960.0001,590.6107 C1093.2351,590.6107 1201.2441,689.3997 1201.2441,811.2607 Z" id="Fill-2" fill="#6B7FA6"></path>
                            <path d="M960,590.6104 C873.115,590.6104 796.969,632.6294 754.496,695.6524 C794.753,775.9534 871.911,839.6694 960,839.6694 C1048.089,839.6694 1125.247,775.9534 1165.504,695.6524 C1123.031,632.6294 1046.886,590.6104 960,590.6104" id="Fill-4" fill="#657796"></path>
                            <path d="M1246.46,490.9277 C1246.46,536.4907 1222.955,573.4277 1193.96,573.4277 C1164.965,573.4277 1141.46,536.4907 1141.46,490.9277 C1141.46,445.3647 1164.965,408.4277 1193.96,408.4277 C1222.955,408.4277 1246.46,445.3647 1246.46,490.9277" id="Fill-6" fill="#FEE3CA"></path>
                            <path d="M1231.1816,490.9277 C1231.1816,522.2407 1215.0286,547.6247 1195.1026,547.6247 C1175.1756,547.6247 1159.0226,522.2407 1159.0226,490.9277 C1159.0226,459.6157 1175.1756,434.2307 1195.1026,434.2307 C1215.0286,434.2307 1231.1816,459.6157 1231.1816,490.9277" id="Fill-8" fill="#F8D4BC"></path>
                            <path d="M778.4043,490.9277 C778.4043,536.4907 754.8993,573.4277 725.9043,573.4277 C696.9093,573.4277 673.4043,536.4907 673.4043,490.9277 C673.4043,445.3647 696.9093,408.4277 725.9043,408.4277 C754.8993,408.4277 778.4043,445.3647 778.4043,490.9277" id="Fill-10" fill="#FEE3CA"></path>
                            <path d="M761.9839,490.9277 C761.9839,522.2407 745.8309,547.6247 725.9039,547.6247 C705.9779,547.6247 689.8249,522.2407 689.8249,490.9277 C689.8249,459.6157 705.9779,434.2307 725.9039,434.2307 C745.8309,434.2307 761.9839,459.6157 761.9839,490.9277" id="Fill-12" fill="#F8D4BC"></path>
                            <path d="M703.4756,372.4639 C703.4756,372.4639 708.9996,425.9279 737.6666,479.9279 L748.3336,351.9279 L720.9996,351.9279 L703.4756,372.4639 Z" id="Fill-14" fill="#6B7FA6"></path>
                            <path d="M1216.3887,372.4639 C1216.3887,372.4639 1210.8647,425.9279 1182.1987,479.9279 L1171.5317,351.9279 L1198.8647,351.9279 L1216.3887,372.4639 Z" id="Fill-16" fill="#6B7FA6"></path>
                            <g id="Group-20" transform="translate(492.000000, 896.000000)">
                                <mask id="mask-4" fill="white">
                                    <use xlink:href="#path-3"></use>
                                </mask>
                                <g id="Clip-19"></g>
                                <path d="M146.0703,0.0957 C146.0703,0.0957 0.2973,59.9997 0.2973,292.9997 L170.2973,292.9997 L170.2973,0.0957 L146.0703,0.0957 Z" id="Fill-18" fill="#435578" mask="url(#mask-4)"></path>
                            </g>
                            <g id="Group-23" transform="translate(1257.000000, 896.000000)">
                                <mask id="mask-6" fill="white">
                                    <use xlink:href="#path-5"></use>
                                </mask>
                                <g id="Clip-22"></g>
                                <path d="M24.9297,0.0957 C24.9297,0.0957 170.7027,59.9997 170.7027,292.9997 L0.7027,292.9997 L0.7027,0.0957 L24.9297,0.0957 Z" id="Fill-21" fill="#435578" mask="url(#mask-6)"></path>
                            </g>
                            <mask id="mask-8" fill="white">
                                <use xlink:href="#path-7"></use>
                            </mask>
                            <g id="Clip-25"></g>
                            <polygon id="Fill-24" fill="#DB6551" mask="url(#mask-8)" points="628.071 1221 1291.137 1221 1291.137 928.096 628.071 928.096"></polygon>
                            <path d="M1291.1367,928.0957 C1291.1367,1000.4527 1142.7027,1059.1107 959.6027,1059.1107 C776.5027,1059.1107 628.0707,1000.4527 628.0707,928.0957 C628.0707,855.7397 776.5027,797.0817 959.6027,797.0817 C1142.7027,797.0817 1291.1367,855.7397 1291.1367,928.0957" id="Fill-26" fill="#DB6551" mask="url(#mask-8)"></path>
                            <path d="M1109.6963,855.6787 C1109.6963,888.0407 1042.6753,914.2757 960.0003,914.2757 C877.3253,914.2757 810.3033,888.0407 810.3033,855.6787 C810.3033,823.3167 877.3253,797.0817 960.0003,797.0817 C1042.6753,797.0817 1109.6963,823.3167 1109.6963,855.6787" id="Fill-27" fill="#C15142" mask="url(#mask-8)"></path>
                            <path d="M1054.2627,849.0498 C1054.2627,869.4278 1012.0597,885.9468 959.9997,885.9468 C907.9407,885.9468 865.7377,869.4278 865.7377,849.0498 C865.7377,828.6708 907.9407,812.1518 959.9997,812.1518 C1012.0597,812.1518 1054.2627,828.6708 1054.2627,849.0498" id="Fill-28" fill="#F8D4BC" mask="url(#mask-8)"></path>
                            <polygon id="Fill-29" fill="#F8D4BC" mask="url(#mask-8)" points="865.738 849.05 1054.263 849.05 1054.263 575.279 865.738 575.279"></polygon>
                            <path d="M960,790.2392 L960,790.2392 C830.683,790.2392 724.878,652.9422 724.878,527.4092 L724.878,320.9982 C724.878,195.4652 830.683,92.7562 960,92.7562 C1089.316,92.7562 1195.121,195.4652 1195.121,320.9982 L1195.121,527.4092 C1195.121,652.9422 1089.316,790.2392 960,790.2392" id="Fill-30" fill="#FEE3CA" mask="url(#mask-8)"></path>
                            <path d="M960.8271,208.4985 C1066.0001,354.5945 1214.8021,382.4895 1214.8021,382.4895 C1214.8021,382.4895 1274.7991,37.5065 960.8271,37.5065 C646.8561,37.5065 704.8271,382.4895 704.8271,382.4895 C808.3221,382.4895 960.8271,208.4985 960.8271,208.4985" id="Fill-31" fill="#6B7FA6" mask="url(#mask-8)"></path>
                            <path d="M967.7617,600.3896 L952.2387,600.3896 C933.1277,600.3896 917.4917,584.7536 917.4917,565.6436 L917.4917,458.7916 C917.4917,439.6816 933.1277,424.0456 952.2387,424.0456 L967.7617,424.0456 C986.8717,424.0456 1002.5077,439.6816 1002.5077,458.7916 L1002.5077,565.6436 C1002.5077,584.7536 986.8717,600.3896 967.7617,600.3896" id="Fill-32" fill="#F8D4BC" mask="url(#mask-8)"></path>
                            <path d="M866.1494,455.2573 C866.1494,469.2983 854.7674,480.6803 840.7264,480.6803 C826.6864,480.6803 815.3034,469.2983 815.3034,455.2573 C815.3034,441.2163 826.6864,429.8343 840.7264,429.8343 C854.7674,429.8343 866.1494,441.2163 866.1494,455.2573" id="Fill-33" fill="#273A60" mask="url(#mask-8)"></path>
                            <path d="M1105.2012,455.2573 C1105.2012,469.2983 1093.8182,480.6803 1079.7782,480.6803 C1065.7372,480.6803 1054.3552,469.2983 1054.3552,455.2573 C1054.3552,441.2163 1065.7372,429.8343 1079.7782,429.8343 C1093.8182,429.8343 1105.2012,441.2163 1105.2012,455.2573" id="Fill-34" fill="#273A60" mask="url(#mask-8)"></path>
                            <path d="M883.9849,585.2832 C883.9849,618.0122 857.4539,644.5422 824.7269,644.5422 C791.9989,644.5422 765.4679,618.0122 765.4679,585.2832 C765.4679,552.5552 791.9989,526.0252 824.7269,526.0252 C857.4539,526.0252 883.9849,552.5552 883.9849,585.2832" id="Fill-35" fill="#F8B5B0" mask="url(#mask-8)"></path>
                            <path d="M1155.0361,585.2832 C1155.0361,618.0122 1128.5061,644.5422 1095.7781,644.5422 C1063.0511,644.5422 1036.5191,618.0122 1036.5191,585.2832 C1036.5191,552.5552 1063.0511,526.0252 1095.7781,526.0252 C1128.5061,526.0252 1155.0361,552.5552 1155.0361,585.2832" id="Fill-36" fill="#F8B5B0" mask="url(#mask-8)"></path>
                            <path d="M782.7388,413.8799 C782.7388,413.8799 829.8298,370.6559 884.7148,386.5269" id="Stroke-37" stroke="#435578" stroke-width="27" stroke-linecap="round" mask="url(#mask-8)"></path>
                            <path d="M1137.7656,413.8799 C1137.7656,413.8799 1090.6746,370.6559 1035.7886,386.5269" id="Stroke-38" stroke="#435578" stroke-width="27" stroke-linecap="round" mask="url(#mask-8)"></path>
                            <path d="M960,722.164 C1007.771,722.164 1046.5,685.45 1046.5,640.16 L873.5,640.16 C873.5,685.45 912.228,722.164 960,722.164" id="Fill-39" fill="#F8D4BC" mask="url(#mask-8)"></path>
                        </g>
                        <g id="Group-51" stroke-width="1" fill="none" transform="translate(725.000000, 38.910000)">
                            <path d="M252.0898,0.21 C252.0898,0.21 514.9998,-11.905 493.2568,315.696 C491.2848,345.401 486.7938,375.31 471.0788,411.19 C471.0788,411.19 544.5748,141.206 252.0898,0.21" id="Fill-41" fill="#435578"></path>
                            <path d="M462.0801,379.1875 C462.0801,379.1875 218.0931,269.6935 236.0921,170.6985 C236.0921,170.6985 331.0001,300.5945 470.0801,339.1895 L470.5801,383.1875 L462.0801,379.1875 Z" id="Fill-43" fill="#F8D4BC"></path>
                            <path d="M214.5928,171.1982 C214.5928,171.1982 103.5988,292.6922 3.1038,327.1902 L3.1038,300.1912 C3.1038,300.1912 177.0948,219.1962 213.0928,147.1992 L214.5928,171.1982 Z" id="Fill-45" fill="#95A8C6"></path>
                            <path d="M211.5928,112.7012 C211.5928,112.7012 100.5988,234.1952 0.1038,268.6932 L0.1038,241.6942 C0.1038,241.6942 174.0948,160.6992 210.0928,88.7022 L211.5928,112.7012 Z" id="Fill-47" fill="#95A8C6"></path>
                            <path d="M208.5933,60.2036 C208.5933,60.2036 103.5983,144.1996 6.1033,199.6966 L13.6033,163.6986 C13.6033,163.6986 159.0953,85.7026 207.0933,36.2046 L208.5933,60.2036 Z" id="Fill-49" fill="#95A8C6"></path>
                        </g>
                    </g>
                </g>
            </g>
            <g id="Page-1" transform="translate(1438.000000, 512.000000)">
                <path d="M0.0002,92.2312 C0.0002,41.2932 41.2932,0.0002 92.2322,0.0002 C143.1712,0.0002 184.4642,41.2932 184.4642,92.2312 C184.4642,41.2932 225.7572,0.0002 276.6962,0.0002 C327.6352,0.0002 368.9292,41.2932 368.9292,92.2312 C368.9292,209.0582 184.4642,306.9242 184.4642,306.9242 C184.4642,306.9242 0.0002,203.4682 0.0002,92.2312" id="Fill-1" fill="#FF8875"></path>
                <path d="M187.4348,92.2312 C187.4348,41.2932 228.7278,0.0002 279.6668,0.0002 C330.6058,0.0002 371.8988,41.2932 371.8988,92.2312 C371.8988,209.0582 187.4348,306.9242 187.4348,306.9242" id="Fill-3" fill="#F2806F"></path>
            </g>
            <g id="Page-1" transform="translate(210.000000, 1278.000000)">
                <g id="Group-9" transform="translate(112.745098, 58.980392)">
                    <path d="M184.815196,135.029085 C184.815196,162.542157 162.421405,184.935948 134.906699,184.935948 L134.906699,350.025817 L239.947549,217.952288 C252.738399,201.780719 261.578268,182.801961 265.847876,162.772549 C267.790686,153.685948 268.787418,144.380392 268.787418,135.029085 C268.787418,61.2039216 208.723693,1.14836601 134.906699,1.14836601 L134.906699,85.1205882 C162.421405,85.1205882 184.815196,107.499673 184.815196,135.029085" id="Fill-1" fill="#F2806F"></path>
                    <path d="M184.815196,135.029085 C184.815196,107.499673 162.421405,85.1205882 134.906699,85.1205882 L134.906699,184.935948 C162.421405,184.935948 184.815196,162.542157 184.815196,135.029085" id="Fill-3" fill="#AAB2BD"></path>
                    <path d="M1.02679739,135.029085 C1.02679739,144.380392 2.02189542,153.681046 3.96633987,162.772549 C8.24575163,182.801961 17.0905229,201.803595 29.9107843,218.016013 L134.907516,350.025817 L134.907516,184.935948 C107.386275,184.935948 84.9990196,162.542157 84.9990196,135.029085 C84.9990196,107.499673 107.386275,85.1205882 134.907516,85.1205882 L134.907516,1.14836601 C61.0823529,1.14836601 1.02679739,61.2039216 1.02679739,135.029085" id="Fill-5" fill="#FF8875"></path>
                    <path d="M134.906863,85.1207516 C107.385621,85.1207516 84.998366,107.499837 84.998366,135.029248 C84.998366,162.54232 107.385621,184.936111 134.906863,184.936111 L134.906863,85.1207516 Z" id="Fill-7" fill="#AAB2BD"></path>
                </g>
                <path d="M23.9521242,46.6946078 L23.9521242,95.2665033 C23.9521242,107.88415 43.5599673,107.903758 43.5599673,95.2665033 L43.5599673,46.6946078 C43.5599673,34.0785948 23.9521242,34.0573529 23.9521242,46.6946078" id="Fill-10" fill="#FCCC6F"></path>
                <path d="M58.0424837,61.1771242 L9.46895425,61.1771242 C-3.14542484,61.1771242 -3.16666667,80.7849673 9.46895425,80.7849673 L58.0424837,80.7849673 C70.6601307,80.7849673 70.6797386,61.1771242 58.0424837,61.1771242" id="Fill-12" fill="#FCCC6F"></path>
                <path d="M399.282516,347.818954 L399.282516,396.39085 C399.282516,409.008497 418.890359,409.028105 418.890359,396.39085 L418.890359,347.818954 C418.890359,335.202941 399.282516,335.181699 399.282516,347.818954" id="Fill-14" fill="#87C8D7"></path>
                <path d="M433.371078,362.301307 L384.799183,362.301307 C372.18317,362.301307 372.161928,381.90915 384.799183,381.90915 L433.371078,381.90915 C445.988725,381.90915 446.008333,362.301307 433.371078,362.301307" id="Fill-16" fill="#87C8D7"></path>
                <path d="M77.0184641,95.2666667 L77.0184641,119.552614 C77.0184641,132.168627 96.6263072,132.189869 96.6263072,119.552614 L96.6263072,95.2666667 C96.6263072,82.6506536 77.0184641,82.6294118 77.0184641,95.2666667" id="Fill-18" fill="#87C8D7"></path>
                <path d="M98.9655229,97.6058824 L74.6795752,97.6058824 C62.0635621,97.6058824 62.0423203,117.213725 74.6795752,117.213725 L98.9655229,117.213725 C111.58317,117.213725 111.602778,97.6058824 98.9655229,97.6058824" id="Fill-20" fill="#87C8D7"></path>
                <path d="M119.67598,9.47107843 L119.67598,36.6720588 C119.67598,49.2897059 139.283824,49.3093137 139.283824,36.6720588 L139.283824,9.47107843 C139.283824,-3.14656863 119.67598,-3.16617647 119.67598,9.47107843" id="Fill-22" fill="#FCCC6F"></path>
                <path d="M143.081536,13.2679739 L115.878922,13.2679739 C103.262908,13.2679739 103.241667,32.875817 115.878922,32.875817 L143.081536,32.875817 C155.697549,32.875817 155.717157,13.2679739 143.081536,13.2679739" id="Fill-24" fill="#FCCC6F"></path>
                <path d="M454.145425,302.747876 L454.145425,329.948856 C454.145425,342.566503 473.753268,342.587745 473.753268,329.948856 L473.753268,302.747876 C473.753268,290.130229 454.145425,290.110621 454.145425,302.747876" id="Fill-26" fill="#FCCC6F"></path>
                <path d="M477.54951,306.544771 L450.348529,306.544771 C437.732516,306.544771 437.709641,326.152614 450.348529,326.152614 L477.54951,326.152614 C490.167157,326.152614 490.186765,306.544771 477.54951,306.544771" id="Fill-28" fill="#FCCC6F"></path>
                <path d="M43.7897059,174.787745 L43.7897059,201.988725 C43.7897059,214.606373 63.397549,214.62598 63.397549,201.988725 L63.397549,174.787745 C63.397549,162.170098 43.7897059,162.15049 43.7897059,174.787745" id="Fill-30" fill="#FCCC6F"></path>
                <path d="M67.1954248,178.584804 L39.9944444,178.584804 C27.3767974,178.584804 27.3555556,198.192647 39.9944444,198.192647 L67.1954248,198.192647 C79.8114379,198.192647 79.8326797,178.584804 67.1954248,178.584804" id="Fill-32" fill="#FCCC6F"></path>
                <path d="M467.745588,394.504739 L467.745588,418.790686 C467.745588,431.406699 487.353431,431.427941 487.353431,418.790686 L487.353431,394.504739 C487.353431,381.888725 467.745588,381.867484 467.745588,394.504739" id="Fill-34" fill="#87C8D7"></path>
                <path d="M489.692647,396.844118 L465.406699,396.844118 C452.790686,396.844118 452.769444,416.451961 465.406699,416.451961 L489.692647,416.451961 C502.310294,416.451961 502.329902,396.844118 489.692647,396.844118" id="Fill-36" fill="#87C8D7"></path>
                <path d="M422.463072,235.538889 L422.463072,262.739869 C422.463072,275.357516 442.070915,275.378758 442.070915,262.739869 L442.070915,235.538889 C442.070915,222.921242 422.463072,222.901634 422.463072,235.538889" id="Fill-38" fill="#FCCC6F"></path>
                <path d="M445.868627,239.335948 L418.667647,239.335948 C406.05,239.335948 406.028758,258.943791 418.667647,258.943791 L445.868627,258.943791 C458.486275,258.943791 458.505882,239.335948 445.868627,239.335948" id="Fill-40" fill="#FCCC6F"></path>
            </g>
        </g>
    </g>
</svg>