<svg id="Layer_1" data-name="Layer 1" xmlns="http://www.w3.org/2000/svg" viewBox="0 0 766 397"><defs><style>.cls-1,.cls-2{fill:#fff;}.cls-2{font-size:38.41px;stroke:#fff;stroke-miterlimit:10;stroke-width:0.25px;font-family:Myriad-Roman, Myriad Roman;letter-spacing:0.06em;}.cls-3{letter-spacing:0.08em;}.cls-4{letter-spacing:0.1em;}.cls-5{letter-spacing:0.06em;}</style></defs><title>Artboard 1</title><path class="cls-1" d="M536.12,250.14a18.27,18.27,0,0,1-10.37-2.94c-2.95-2-4.95-7.75-6-11.11a40.69,40.69,0,0,1-30,12.77c-6.42,0-11.67-3.79-15.73-7.75s-6.1-11.34-6.1-17.26c0-14.63,11.24-25.19,52-29.14l.64-16.7v-.54c0-5.14-2.25-8-4.78-11.05s-5.13-3.87-9.34-3.87-8.36-.28-11.29,1.76-5.55,4.16-5.62,7.23c-.07,4.57.64,8-1.67,10.54a11.87,11.87,0,0,1-9.26,3.85,7.74,7.74,0,0,1-5.57-2c-1.43-1.36-2.06-4.36-2.06-6.64,0-5.5,4.91-10.08,14.9-16.11s19.27-9,27.83-9q11.56,0,18.73,6.85c4.78,4.57,4,10.71,4,18.41v1.28L536.42,227v.75c0,7.49,4,11.24,8.89,11.24q3.53,0,8.24-4.28l.75-.21a2,2,0,0,1,1.61,1.13,4.27,4.27,0,0,1,.75,2.41q0,3.11-6.47,7.6A24.13,24.13,0,0,1,536.12,250.14Zm-15.38-49c-20.76,4.72-34.88,8.67-34.88,19.55,0,10.16,6.63,15.85,14.45,15.85a24,24,0,0,0,11.14-2.82c3.66-1.9,7.65-4.32,8.93-7.11Z"/><path class="cls-1" d="M650,173.08A10.9,10.9,0,0,0,661.3,163c0-1.75-1.41-7.19-10.87-7.19s-14.55,5.09-18.4,5.09-7.19-8.24-27.6-8.24-37.95,17.53-37.95,38.91c0,16.3,17.35,26.64,16.12,28.57s-15.25,11.22-15.25,19.46c0,11.39,15.51,15,13.32,17.18s-20.33,12.09-20.33,29.09c0,8.77,6.66,30.85,40.31,30.85C639,316.7,659,286,659,269.73c0-11.92-9.74-26-22.79-27.69-13.73-1.76-38.74,0-43.29,0s-7.72-1.4-9.64-7.71,1.05-10,3.33-10.69,3.85,0,17.79,0c30.41,0,39.87-25.07,39.87-36.07s-3.72-16-4.56-17.39S644.7,173.08,650,173.08Zm-56.5,85.25h34.18c7,0,15.07,6.67,15.07,19.46S634.14,305,610.82,305,577,291.63,577,282.17,581.72,258.33,593.46,258.33Zm11.75-41c-17.7,0-21.91-21.39-21.91-31.38,0-4.63,2.63-26.11,20.33-26.11s21.91,20.16,21.91,28.74C625.54,198.5,626.07,217.32,605.21,217.32Z"/><path class="cls-1" d="M740.62,191.4c0-6.91.88-39-37.25-39-31.27,0-42,30.18-42,47.44,0,14.82,9.53,47.44,43.13,47.44,26.29,0,37.85-22.26,34.64-23.82-5-2.45-6.91,8.92-28,8.92-13,0-33.72-10.79-33.72-31.36V191.4Zm-38.28-31c18.57,0,21.74,21.45,19.72,25H677.58S683.77,160.45,702.34,160.45Z"/><path class="cls-1" d="M444,99.78c1.35,1.08-1.9,31.19-1.9,32.81s-4.51,2.44-5.15,0-6.51-31.46-33.09-31.46-27.12,20.08-27.12,24.41c0,22,16.27,25.76,33.63,34.44s38.78,18.44,38.78,44.47-28.74,43.12-50.44,43.12-33.63-5.42-36.07-8.41-6.51-35.8-7.59-37.43,6.08-3.49,6.78-.27c7.05,33.62,34.95,37.42,40.27,37.42s28.34-4.34,28.34-27.12-21.15-30.1-37.7-38.1-35.53-18.58-35.53-40.81S380,91.64,406.86,91.64,442.66,98.7,444,99.78Z"/><path class="cls-1" d="M283,76.49a1.73,1.73,0,0,0-1.64-.4l-73,24.48a.56.56,0,0,0-.23,1l58.68,56.8a1.88,1.88,0,0,0,1.68.41l71.68-21.63a.56.56,0,0,0,.26-1Z"/><path class="cls-1" d="M136.35,35.57a1.8,1.8,0,0,0-1.64-.46L62,55.79a.54.54,0,0,0-.26,1l56.44,56.76a2,2,0,0,0,1.67.46l71.65-18a.54.54,0,0,0,.29-1Z"/><path class="cls-1" d="M180,183.83a1.93,1.93,0,0,0-1.66-.51l-74.81,16.93c-.54.12-.66.54-.28.94l56.46,58.27a1.92,1.92,0,0,0,1.67.47l71.65-18a.54.54,0,0,0,.29-1Z"/><path class="cls-1" d="M55.63,63.39a.53.53,0,0,1,1-.25l56.94,57.32a2,2,0,0,1,.46,1.68l-18.1,70.3c-.14.53-.56.65-.95.25L37.08,133a1.93,1.93,0,0,1-.43-1.68Z"/><path class="cls-1" d="M99.4,208.93a.52.52,0,0,1,1-.24l55,57.87a2.07,2.07,0,0,1,.46,1.7L139.61,337a.53.53,0,0,1-1,.29L79.51,281.78a1.8,1.8,0,0,1-.45-1.65Z"/><path class="cls-1" d="M201.34,107.26c.12-.54.55-.66.94-.27l58.44,57.31a1.88,1.88,0,0,1,.45,1.66l-19.59,71c-.15.53-.58.64-1,.24l-55.16-58a2.08,2.08,0,0,1-.46-1.7Z"/><path class="cls-1" d="M121.21,123.65a1.9,1.9,0,0,1,1.22-1.22l70.93-18.64c.53-.14.86.18.74.72l-16.72,71a1.77,1.77,0,0,1-1.2,1.2l-72.61,16.95c-.54.13-.86-.21-.72-.74Z"/><path class="cls-1" d="M162.95,271.18a1.83,1.83,0,0,1,1.19-1.23L237,250.4c.53-.14.85.17.7.7l-19,68.71A2,2,0,0,1,217.5,321L148,340.41c-.53.15-.86-.17-.74-.71Z"/><path class="cls-1" d="M267.3,166.09a2,2,0,0,1,1.23-1.23l68.69-19c.53-.15.86.17.74.71l-15.56,68.35a1.83,1.83,0,0,1-1.19,1.23l-72.58,19.53c-.53.14-.84-.17-.7-.7Z"/><text class="cls-2" transform="translate(269.62 295.41) scale(1.04 1)">BION<tspan class="cls-3" x="90.96" y="0">E</tspan><tspan class="cls-4" x="112.77" y="0">T</tspan><tspan class="cls-5" x="135.7" y="0">WORKS</tspan></text></svg>