<?xml version="1.0" encoding="utf-8"?>
<!-- Generator: Adobe Illustrator 21.1.0, SVG Export Plug-In . SVG Version: 6.00 Build 0)  -->
<svg version="1.1" id="Layer_1" xmlns="http://www.w3.org/2000/svg" xmlns:xlink="http://www.w3.org/1999/xlink" x="0px" y="0px"
	 viewBox="0 0 766 397" style="enable-background:new 0 0 766 397;" xml:space="preserve">
<style type="text/css">
	.st0{fill:#00754A;}
	.st1{fill:url(#SVGID_1_);}
	.st2{fill:url(#SVGID_2_);}
	.st3{fill:url(#SVGID_3_);}
	.st4{fill:url(#SVGID_4_);}
	.st5{fill:url(#SVGID_5_);}
	.st6{fill:url(#SVGID_6_);}
	.st7{fill:url(#SVGID_7_);}
	.st8{fill:url(#SVGID_8_);}
	.st9{fill:url(#SVGID_9_);}
	.st10{fill:#868686;stroke:#848484;stroke-width:0.25;stroke-miterlimit:10;}
	.st11{font-family:'Myriad-Roman';}
	.st12{font-size:38.4109px;}
	.st13{letter-spacing:1.9;}
</style>
<g id="zltHmL.tif">
	
		<image style="overflow:visible;" width="231" height="105" id="Layer_0_2_" xlink:href="28AD0628DA9A44B1.png"  transform="matrix(1 0 0 1 787.9473 50.1914)">
	</image>
</g>
<g>
	<g>
		<path class="st0" d="M536.1,250.1c-4,0-7.4-1-10.4-2.9c-2.9-2-4.9-7.8-6-11.1c-7.6,7.8-17.6,12.8-30,12.8
			c-6.4,0-11.7-3.8-15.7-7.7c-4.1-4-6.1-11.3-6.1-17.3c0-14.6,11.2-25.2,52-29.1l0.6-16.7v-0.5c0-5.1-2.2-8-4.8-11.1
			c-2.5-3-5.1-3.9-9.3-3.9c-4.2,0-8.4-0.3-11.3,1.8c-2.9,2-5.6,4.2-5.6,7.2c-0.1,4.6,0.6,8-1.7,10.5c-2.3,2.6-5.4,3.9-9.3,3.9
			c-2.3,0-4.1-0.7-5.6-2c-1.4-1.4-2.1-4.4-2.1-6.6c0-5.5,4.9-10.1,14.9-16.1c10-6,19.3-9,27.8-9c7.7,0,13.9,2.3,18.7,6.8
			c4.8,4.6,4,10.7,4,18.4v1.3l-0.1,48.4v0.8c0,7.5,4,11.2,8.9,11.2c2.4,0,5.1-1.4,8.2-4.3l0.8-0.2c0.6,0,1.1,0.4,1.6,1.1
			c0.5,0.7,0.7,1.5,0.7,2.4c0,2.1-2.2,4.6-6.5,7.6C545.9,248.6,541.2,250.1,536.1,250.1z M520.7,201.1c-20.8,4.7-34.9,8.7-34.9,19.5
			c0,10.2,6.6,15.9,14.5,15.9c3.8,0,7.5-0.9,11.1-2.8c3.7-1.9,7.6-4.3,8.9-7.1L520.7,201.1z"/>
		<path class="st0" d="M650,173.1c9.5,0,11.3-8.3,11.3-10.1c0-1.8-1.4-7.2-10.9-7.2c-9.5,0-14.6,5.1-18.4,5.1
			c-3.9,0-7.2-8.2-27.6-8.2c-20.4,0-37.9,17.5-37.9,38.9c0,16.3,17.3,26.6,16.1,28.6c-1.2,1.9-15.2,11.2-15.2,19.5
			c0,11.4,15.5,15,13.3,17.2c-2.2,2.2-20.3,12.1-20.3,29.1c0,8.8,6.7,30.8,40.3,30.8c38.4,0,58.4-30.7,58.4-47
			c0-11.9-9.7-26-22.8-27.7c-13.7-1.8-38.7,0-43.3,0c-4.6,0-7.7-1.4-9.6-7.7c-1.9-6.3,1.1-10,3.3-10.7c2.3-0.7,3.9,0,17.8,0
			c30.4,0,39.9-25.1,39.9-36.1c0-11-3.7-16-4.6-17.4C638.9,168.8,644.7,173.1,650,173.1z M593.5,258.3c11.7,0,27.2,0,34.2,0
			c7,0,15.1,6.7,15.1,19.5c0,12.8-8.6,27.2-31.9,27.2c-23.3,0-33.8-13.3-33.8-22.8C577,272.7,581.7,258.3,593.5,258.3z M605.2,217.3
			c-17.7,0-21.9-21.4-21.9-31.4c0-4.6,2.6-26.1,20.3-26.1s21.9,20.2,21.9,28.7C625.5,198.5,626.1,217.3,605.2,217.3z"/>
		<path class="st0" d="M740.6,191.4c0-6.9,0.9-39-37.2-39c-31.3,0-42,30.2-42,47.4c0,14.8,9.5,47.4,43.1,47.4
			c26.3,0,37.8-22.3,34.6-23.8c-5-2.4-6.9,8.9-28,8.9c-13,0-33.7-10.8-33.7-31.4v-9.7H740.6z M702.3,160.4c18.6,0,21.7,21.5,19.7,25
			h-44.5C677.6,185.5,683.8,160.4,702.3,160.4z"/>
		<path class="st0" d="M444,99.8c1.4,1.1-1.9,31.2-1.9,32.8c0,1.6-4.5,2.4-5.2,0c-0.6-2.4-6.5-31.5-33.1-31.5
			c-26.6,0-27.1,20.1-27.1,24.4c0,22,16.3,25.8,33.6,34.4c17.4,8.7,38.8,18.4,38.8,44.5c0,26-28.7,43.1-50.4,43.1
			c-21.7,0-33.6-5.4-36.1-8.4c-2.4-3-6.5-35.8-7.6-37.4c-1.1-1.6,6.1-3.5,6.8-0.3c7.1,33.6,34.9,37.4,40.3,37.4
			c5.3,0,28.3-4.3,28.3-27.1c0-22.8-21.2-30.1-37.7-38.1c-16.5-8-35.5-18.6-35.5-40.8c0-22.2,22.8-41.2,49.6-41.2
			S442.7,98.7,444,99.8z"/>
	</g>
	<g>
		<g>
			<linearGradient id="SVGID_1_" gradientUnits="userSpaceOnUse" x1="284.741" y1="79.2817" x2="264.2811" y2="156.2832">
				<stop  offset="0" style="stop-color:#DCDCDD"/>
				<stop  offset="0.4909" style="stop-color:#C7C6C8"/>
				<stop  offset="1" style="stop-color:#B5B5B7"/>
			</linearGradient>
			<path class="st1" d="M283,76.5c-0.4-0.4-1.1-0.6-1.6-0.4l-73,24.5c-0.5,0.2-0.6,0.6-0.2,1l58.7,56.8c0.4,0.4,1.1,0.6,1.7,0.4
				l71.7-21.6c0.5-0.2,0.6-0.6,0.3-1L283,76.5z"/>
		</g>
		<g>
			<linearGradient id="SVGID_2_" gradientUnits="userSpaceOnUse" x1="136.8893" y1="37.9185" x2="117.2269" y2="111.9185">
				<stop  offset="0" style="stop-color:#DCDCDD"/>
				<stop  offset="0.4909" style="stop-color:#C7C6C8"/>
				<stop  offset="1" style="stop-color:#B5B5B7"/>
			</linearGradient>
			<path class="st2" d="M136.3,35.6c-0.4-0.4-1.1-0.6-1.6-0.5L62,55.8c-0.5,0.2-0.6,0.6-0.3,1l56.4,56.8c0.4,0.4,1.1,0.6,1.7,0.5
				l71.7-18c0.5-0.1,0.7-0.6,0.3-1L136.3,35.6z"/>
		</g>
		<g>
			<linearGradient id="SVGID_3_" gradientUnits="userSpaceOnUse" x1="159.5251" y1="263.3137" x2="176.1208" y2="183.5354">
				<stop  offset="0" style="stop-color:#EAF3EA"/>
				<stop  offset="9.988886e-02" style="stop-color:#DDEDDE"/>
				<stop  offset="0.3401" style="stop-color:#C5E0C6"/>
				<stop  offset="0.5745" style="stop-color:#B3D7B5"/>
				<stop  offset="0.7983" style="stop-color:#A8D2AB"/>
				<stop  offset="1" style="stop-color:#A5D1A8"/>
			</linearGradient>
			<path class="st3" d="M180,183.8c-0.4-0.4-1.1-0.6-1.7-0.5l-74.8,16.9c-0.5,0.1-0.7,0.5-0.3,0.9l56.5,58.3
				c0.4,0.4,1.1,0.6,1.7,0.5l71.7-18c0.5-0.1,0.7-0.6,0.3-1L180,183.8z"/>
		</g>
		<g>
			<linearGradient id="SVGID_4_" gradientUnits="userSpaceOnUse" x1="37.3679" y1="132.2944" x2="114.039" y2="123.5407">
				<stop  offset="0" style="stop-color:#E4E4E4"/>
				<stop  offset="0.5025" style="stop-color:#D7D5D6"/>
				<stop  offset="1" style="stop-color:#C8C4C4"/>
			</linearGradient>
			<path class="st4" d="M55.6,63.4c0.1-0.5,0.6-0.6,1-0.3l56.9,57.3c0.4,0.4,0.6,1.1,0.5,1.7l-18.1,70.3c-0.1,0.5-0.6,0.6-0.9,0.3
				L37.1,133c-0.4-0.4-0.6-1.2-0.4-1.7L55.6,63.4z"/>
		</g>
		<g>
			<linearGradient id="SVGID_5_" gradientUnits="userSpaceOnUse" x1="79.369" y1="277.5665" x2="155.7444" y2="268.8465">
				<stop  offset="0" style="stop-color:#E4E4E4"/>
				<stop  offset="0.5025" style="stop-color:#D7D5D6"/>
				<stop  offset="1" style="stop-color:#C8C4C4"/>
			</linearGradient>
			<path class="st5" d="M99.4,208.9c0.2-0.5,0.6-0.6,1-0.2l55,57.9c0.4,0.4,0.6,1.2,0.5,1.7L139.6,337c-0.1,0.5-0.6,0.7-1,0.3
				l-59.1-55.5c-0.4-0.4-0.6-1.1-0.5-1.6L99.4,208.9z"/>
		</g>
		<g>
			<linearGradient id="SVGID_6_" gradientUnits="userSpaceOnUse" x1="258.9657" y1="163.5695" x2="184.5473" y2="180.5126">
				<stop  offset="2.118940e-03" style="stop-color:#E5F0F0"/>
				<stop  offset="4.367843e-02" style="stop-color:#DBE9EA"/>
				<stop  offset="0.178" style="stop-color:#C1D9DE"/>
				<stop  offset="0.3254" style="stop-color:#ADCED4"/>
				<stop  offset="0.4905" style="stop-color:#A0C6CE"/>
				<stop  offset="0.6875" style="stop-color:#97C1CA"/>
				<stop  offset="1" style="stop-color:#95C0C9"/>
			</linearGradient>
			<path class="st6" d="M201.3,107.3c0.1-0.5,0.5-0.7,0.9-0.3l58.4,57.3c0.4,0.4,0.6,1.1,0.4,1.7l-19.6,71c-0.1,0.5-0.6,0.6-1,0.2
				l-55.2-58c-0.4-0.4-0.6-1.2-0.5-1.7L201.3,107.3z"/>
		</g>
		<g>
			<linearGradient id="SVGID_7_" gradientUnits="userSpaceOnUse" x1="125.2511" y1="121.8315" x2="173.2553" y2="177.4305">
				<stop  offset="0" style="stop-color:#E1F4FD"/>
				<stop  offset="0.1374" style="stop-color:#CAEBF9"/>
				<stop  offset="0.3676" style="stop-color:#A9DFF4"/>
				<stop  offset="0.5922" style="stop-color:#90D8F1"/>
				<stop  offset="0.8067" style="stop-color:#81D3EF"/>
				<stop  offset="1" style="stop-color:#7BD2EF"/>
			</linearGradient>
			<path class="st7" d="M121.2,123.7c0.1-0.5,0.7-1.1,1.2-1.2l70.9-18.6c0.5-0.1,0.9,0.2,0.7,0.7l-16.7,71c-0.1,0.5-0.7,1.1-1.2,1.2
				l-72.6,16.9c-0.5,0.1-0.9-0.2-0.7-0.7L121.2,123.7z"/>
		</g>
		<g>
			<linearGradient id="SVGID_8_" gradientUnits="userSpaceOnUse" x1="222.7278" y1="316.0543" x2="161.5657" y2="274.2731">
				<stop  offset="0" style="stop-color:#EFEEEF"/>
				<stop  offset="0.8156" style="stop-color:#DBDBDC"/>
			</linearGradient>
			<path class="st8" d="M162.9,271.2c0.1-0.5,0.7-1.1,1.2-1.2l72.9-19.6c0.5-0.1,0.8,0.2,0.7,0.7l-19,68.7c-0.1,0.5-0.7,1.1-1.2,1.2
				L148,340.4c-0.5,0.1-0.9-0.2-0.7-0.7L162.9,271.2z"/>
		</g>
		<g>
			<linearGradient id="SVGID_9_" gradientUnits="userSpaceOnUse" x1="325.2644" y1="212.8476" x2="264.4756" y2="171.3214">
				<stop  offset="0" style="stop-color:#EFEEEF"/>
				<stop  offset="0.8156" style="stop-color:#DBDBDC"/>
			</linearGradient>
			<path class="st9" d="M267.3,166.1c0.1-0.5,0.7-1.1,1.2-1.2l68.7-19c0.5-0.1,0.9,0.2,0.7,0.7l-15.6,68.3c-0.1,0.5-0.7,1.1-1.2,1.2
				l-72.6,19.5c-0.5,0.1-0.8-0.2-0.7-0.7L267.3,166.1z"/>
		</g>
	</g>
	<text transform="matrix(1.0412 0 0 1 269.6211 295.4106)" class="st10 st11 st12 st13">BIONETWORKS</text>
</g>
</svg>
